<svg width="32" height="32" viewBox="0 0 32 32" fill="none" xmlns="http://www.w3.org/2000/svg">
<rect width="32" height="32" rx="8" fill="#1B1818"/>
<path d="M21.2263 14.5873C21.3137 14.5723 21.3966 14.6041 21.4787 14.6085C22.418 14.6592 24.2111 14.2806 24.9555 14.9012C25.107 15.0276 25.2598 15.2198 25.302 15.4159C25.426 15.4188 25.5513 15.4202 25.6755 15.4192C26.0212 15.4159 26.2476 15.4376 26.5761 15.5706C27.4984 15.9441 27.8812 16.7662 27.3906 17.6814C27.0414 18.3324 26.3846 18.8052 25.8086 19.2423C25.7997 19.2766 26.0182 19.6428 26.0531 19.7212C26.7741 21.3494 25.8143 22.3187 24.2153 22.4707C22.2175 22.6606 20.2645 21.8704 18.3008 21.661L18.2677 21.5994C18.2659 21.6203 18.2546 21.6489 18.239 21.6621C18.1925 21.7014 17.8999 21.674 17.8116 21.6807C17.4764 21.7062 17.112 21.7924 16.7754 21.8402C16.7231 21.8477 16.6641 21.8335 16.6195 21.843C16.6033 21.8465 16.6045 21.8876 16.5668 21.8951C16.5291 21.9026 16.4762 21.8813 16.4187 21.8878C16.247 21.9071 16.0537 22.0204 15.881 22.0404C15.8198 22.0475 15.7519 22.025 15.7266 22.0299C15.699 22.0352 15.6676 22.0947 15.6182 22.1032C15.5819 22.1095 15.5517 22.0891 15.5241 22.0917C15.4893 22.0953 15.3746 22.1632 15.3132 22.1815C15.0943 22.2467 14.8209 22.2556 14.6227 22.3219C14.5611 22.3426 14.5642 22.389 14.5204 22.4016C14.4521 22.421 14.3712 22.4056 14.2944 22.4194C13.973 22.4767 13.4307 22.6206 13.1154 22.7197C13.0187 22.7501 12.7978 22.8792 12.7074 22.8567C12.6898 22.8523 12.7019 22.8016 12.6642 22.8158C12.6274 22.8551 12.6024 22.8843 12.5489 22.9033C12.3677 22.9674 12.0251 23.0231 11.8273 23.0531C11.5853 23.0898 11.3314 23.1372 11.0934 23.059V23.14C11.029 23.1003 11.0024 23.1544 10.9609 23.1595C10.8604 23.1719 10.7244 23.1767 10.6255 23.171L10.6273 23.12C10.5146 23.0918 10.495 23.2235 10.3937 23.1413L10.3635 23.2008C10.2885 23.1159 10.2058 23.1911 10.1324 23.1808C10.099 23.1761 10.0751 23.1404 10.0295 23.1378C9.94659 23.1327 9.8256 23.2598 9.76744 23.1222L9.61423 23.1605V23.0995C9.48149 23.1629 9.34267 23.138 9.20121 23.1171C8.72963 23.0474 7.97149 22.7564 7.65818 22.3904C6.81106 21.4014 8.00452 20.3257 8.94526 20.0797C8.95012 20.0444 8.89925 20.0607 8.87473 20.0596C8.1026 20.0298 7.16713 20.4562 6.76081 21.1276C6.46959 21.6088 6.56544 22.1039 5.98017 22.4344C5.556 22.6739 5.27127 22.6553 4.89189 23.0484C4.85339 23.0884 4.70301 23.29 4.6793 23.3022C4.62803 23.3285 4.66897 23.2308 4.62904 23.2416C4.62256 23.3032 4.56358 23.3257 4.50725 23.3222L4.58811 23.14C4.56156 23.1862 4.31675 23.332 4.32729 23.214C4.33073 23.1759 4.39376 23.1453 4.38545 23.0995C4.37552 23.0882 4.20103 23.2945 4.12726 23.2166C4.05066 23.1042 4.20934 23.028 4.20306 22.9171C4.13152 22.9643 4.10841 23.073 4.0006 23.059C3.98419 22.7116 4.30763 22.3345 4.56358 22.1278C4.77334 21.9585 5.03922 21.8578 5.2433 21.6977C5.48791 21.5058 5.49966 21.2703 5.60626 21.0069C6.11453 19.7494 7.57894 19.0988 8.88446 19.2693C8.85244 18.9758 8.46658 18.96 8.24244 18.8678C7.3402 18.4961 7.3092 17.5852 7.91231 16.9091C7.97939 16.8339 8.10301 16.7827 8.11091 16.7731C8.12003 16.7624 8.11294 16.721 8.1251 16.6969C8.14516 16.6564 8.2165 16.6329 8.21609 16.5743L8.29655 16.6147L8.29695 16.5537C8.37761 16.6076 8.50488 16.5492 8.45868 16.4527H8.52008C8.51258 16.4158 8.48826 16.3986 8.52961 16.3723C8.61087 16.4282 8.60013 16.3494 8.66275 16.3017C8.71585 16.2614 8.85589 16.1945 8.92459 16.1583C9.67706 15.7609 10.5562 15.544 11.3974 15.439L11.2154 15.3071C10.9698 15.1681 10.9609 15.1958 10.6983 15.196C10.5392 15.196 10.6162 15.1616 10.4289 15.2108C10.3106 15.242 10.1172 15.2315 10.0127 15.257C9.99949 15.2603 9.98874 15.3387 9.89795 15.2769L9.89633 15.3355C9.66206 15.3369 9.47379 15.5568 9.25776 15.5997C9.21986 15.6072 9.17588 15.5937 9.14123 15.6016C9.13231 15.6036 9.11205 15.6717 9.04638 15.6421L9.06402 15.6794C9.01477 15.6853 8.98782 15.7487 8.95154 15.7594C8.89621 15.7761 8.80583 15.7463 8.76226 15.7728C8.70876 15.8056 8.79103 15.8431 8.77401 15.8648C8.73085 15.9199 8.6435 15.9307 8.60195 15.957C8.57703 15.9728 8.56 16.0257 8.51826 16.0557C8.44591 16.1078 8.18691 16.2884 8.11902 16.3054C8.05113 16.3224 8.02418 16.3094 7.9727 16.2701L7.9723 16.4323L7.92183 16.3109C7.86651 16.3421 7.90623 16.4505 7.8886 16.4704C7.88373 16.4758 7.84219 16.4762 7.8203 16.4922C7.73377 16.5555 7.6981 16.6246 7.58177 16.6803C7.5534 16.6939 7.50132 16.69 7.49017 16.7C7.48125 16.7079 7.47943 16.7591 7.43586 16.7977C7.11789 17.0781 6.15101 17.4745 5.74285 17.3144C5.70617 17.3 5.66625 17.2498 5.65206 17.249C5.64152 17.2484 5.6322 17.2782 5.58681 17.2705C5.12393 17.1912 4.76482 16.7723 4.79097 16.3007C4.8394 15.4261 5.72867 14.4705 6.40555 13.9839C10.6916 10.9037 16.0419 13.3211 20.7499 13.6358C20.8466 13.6423 20.9598 13.6664 21.0547 13.6889C21.1098 13.6822 21.6546 13.0464 21.7399 12.9534C22.9044 11.6852 24.1497 10.1922 25.5784 9.21824C26.2123 8.78597 27.1464 8.33181 27.7513 9.06624C28.426 9.88518 27.5691 11.3391 27.059 12.0613C25.8733 13.7404 23.9081 14.4942 21.884 14.427C21.7654 14.4231 21.5455 14.3716 21.4406 14.3862C21.3802 14.3945 21.1982 14.5621 21.2263 14.5881V14.5873ZM25.8147 12.2855C26.3797 11.7594 27.0505 10.785 27.301 10.0528C27.3636 9.86978 27.5266 9.24154 27.2662 9.16433C27.1371 9.12603 26.7553 9.32889 26.631 9.40306C26.3583 9.566 26.1155 9.82925 25.7898 9.86897C25.7862 9.96969 25.711 10.0325 25.6445 10.0986C25.2665 10.4735 24.7885 10.7562 24.4075 11.1516C23.6892 11.897 22.9674 12.7033 22.2696 13.4722C22.2285 13.5176 22.1632 13.5888 22.128 13.6346C22.1124 13.6548 22.0887 13.6603 22.0978 13.6954C23.4742 13.666 24.8022 13.2278 25.8147 12.2853V12.2855ZM23.0703 11.7908C23.1636 11.7434 23.2197 11.6345 23.2939 11.5573C23.7353 11.0967 24.1993 10.6069 24.6821 10.1902C24.9044 9.99827 25.1601 9.83675 25.3604 9.62234L25.0673 9.8256C24.4075 10.407 23.5829 11.0821 23.0703 11.7906C22.9469 11.8532 22.6701 12.218 22.5442 12.3483C22.1754 12.7305 21.6791 13.1636 21.3682 13.5845C21.3481 13.6117 21.3226 13.6384 21.3275 13.6753C21.3603 13.6459 21.4077 13.6242 21.4387 13.5942C21.5559 13.4805 21.6888 13.3312 21.8039 13.2096C22.1995 12.7911 22.7432 12.2427 23.0701 11.7906L23.0703 11.7908ZM25.624 12.7228C25.6692 12.7163 25.7197 12.6701 25.7553 12.6415C25.8656 12.5526 25.9961 12.4334 26.0897 12.3274C26.1297 12.282 26.1923 12.2121 26.2117 12.1556L25.6242 12.7228H25.624ZM26.4752 12.6823C26.6179 12.5613 26.7512 12.4182 26.856 12.2628C26.8748 12.2348 26.9056 12.2123 26.9006 12.1758C26.7921 12.2786 26.6928 12.3961 26.5972 12.5106C26.5563 12.5597 26.4948 12.6235 26.4754 12.6825L26.4752 12.6823ZM11.5636 13.1224L11.5494 13.0876C11.2525 13.2236 10.8478 13.1772 10.5169 13.2305C10.4826 13.2359 10.4599 13.2669 10.4149 13.2716C10.3304 13.2803 10.3037 13.2463 10.2524 13.1891C10.2145 13.2398 10.1697 13.3069 10.1051 13.3253C10.0708 13.335 10.0072 13.3109 9.98814 13.3174C9.9626 13.3259 9.96665 13.3658 9.94456 13.3717C9.87424 13.3904 9.75001 13.3784 9.63916 13.4064C8.29533 13.7452 6.28517 14.9146 5.80932 16.2845C5.78724 16.3482 5.6705 16.6761 5.75522 16.6929C7.50942 16.184 8.87777 14.0885 10.8912 14.6375C11.0898 14.6916 11.3543 14.8045 11.5328 14.9079C11.7134 15.0124 12.0032 15.2801 12.1874 15.3274C12.3716 15.3746 12.7648 15.3253 12.9684 15.3168C13.332 15.3014 13.6986 15.2874 14.0626 15.2558C16.1258 15.0767 18.1332 14.3903 20.2226 14.5254C20.2988 14.5119 20.3829 14.4004 20.4157 14.3337C20.3446 14.2596 20.193 14.3637 20.1727 14.2225L20.1125 14.2628L20.101 14.2213C20.0619 14.2346 20.0219 14.2484 19.9796 14.2452C19.9682 14.2444 19.828 14.188 19.7761 14.1836C17.8567 14.0131 15.9769 13.4799 14.0603 13.2524C13.4524 13.1802 12.9161 13.2027 12.3201 13.1687C12.2605 13.1652 12.0471 13.1445 12.0117 13.121C12.0048 13.1166 12.0042 13.0977 12.0056 13.088L11.9728 13.1289L11.5642 13.1226L11.5636 13.1224ZM6.2497 14.4253C6.2037 14.4318 6.15526 14.4778 6.11838 14.5066C6.0132 14.5887 5.91835 14.6855 5.82351 14.7792L5.58113 15.1142C5.8229 14.9038 6.02637 14.6543 6.2497 14.4253ZM5.98645 15.7019C6.15101 15.4992 6.32428 15.3035 6.49289 15.104C6.51235 15.0811 6.54193 15.071 6.53322 15.0331C6.35833 15.1857 6.19438 15.3748 6.06285 15.5657C6.03509 15.6058 5.99314 15.6538 5.98645 15.7019ZM22.8879 15.4994C22.6431 15.5231 22.4084 15.4141 22.1693 15.3971C21.8406 15.3736 21.3862 15.3827 21.0531 15.3971C20.9114 15.4032 20.4445 15.4348 20.3444 15.499L19.8886 15.9651C20.5795 15.8812 21.2748 15.8294 21.9626 15.7189C22.2179 15.678 22.5712 15.6305 22.8115 15.5545C22.8417 15.545 22.879 15.5345 22.8879 15.4994ZM19.1996 15.6008C19.0719 15.5991 18.9584 15.6618 18.8287 15.6368C18.7948 15.6303 18.7722 15.5941 18.7334 15.6006V15.6616C18.655 15.6526 18.5369 15.6486 18.4599 15.6616C18.4118 15.6697 18.4027 15.7213 18.3385 15.7242C18.2837 15.7266 18.2246 15.6905 18.1658 15.7021C18.1577 15.7114 18.2065 15.7704 18.1518 15.7789C17.9597 15.8192 17.766 15.8257 17.5738 15.8701C17.0952 15.9805 16.5922 16.1866 16.1139 16.3151L15.9163 16.4112L17.8515 16.2493C18.0738 16.2112 18.3079 16.2095 18.5271 16.1548C18.8252 16.0804 18.9864 15.8012 19.1992 15.601L19.1996 15.6008ZM13.9102 16.0867L13.9005 16.0468L12.9782 16.1376L13.213 16.4098L13.9102 16.0867ZM25.5632 16.1074C25.5539 16.1427 25.578 16.1479 25.5934 16.1682C25.7616 16.3899 25.9823 16.5845 26.139 16.8183C26.2263 16.9488 26.3179 17.1912 26.4146 17.2925C26.4853 17.3667 26.54 17.2167 26.5737 17.148C26.6953 16.8992 26.905 16.2495 26.5404 16.1331C26.2302 16.0342 25.8771 16.1414 25.5634 16.1072L25.5632 16.1074ZM12.5524 16.6138L12.3603 16.3097C12.2922 16.2521 12.2352 16.1496 12.1367 16.1465C11.8597 16.1816 11.5829 16.2187 11.3089 16.2722C11.2292 16.2878 11.1546 16.3295 11.0782 16.3455C10.9291 16.3769 10.7236 16.3782 10.5848 16.4203C10.5556 16.4292 10.5483 16.4408 10.5428 16.4693C10.4399 16.4308 10.4796 16.4752 10.4439 16.501C10.3635 16.5589 10.2516 16.5158 10.1734 16.5318C10.1541 16.5356 10.1653 16.5861 10.1294 16.6126C10.0534 16.669 9.78203 16.7389 9.67503 16.7867C9.04497 17.0684 8.575 17.4719 8.47894 18.195L8.6587 18.1923C8.67532 18.1808 8.73611 17.8689 8.76753 17.8047C8.91952 17.4944 9.4211 17.2668 9.73035 17.1462C10.6271 16.796 11.5962 16.6817 12.5524 16.6142V16.6138ZM14.5384 19.5524C14.9555 19.5564 15.3683 19.5408 15.7848 19.5321C16.7956 19.511 17.6048 19.5437 18.596 19.2833C20.1561 18.8735 22.724 17.7757 24.2816 18.2096C24.4265 18.2499 24.7808 18.4528 24.8766 18.4475C24.9421 18.4438 25.1154 18.3642 25.1853 18.3336C25.5594 18.1701 25.8119 18.0687 25.7633 17.5992C25.7268 17.2461 25.2256 16.3518 24.8703 16.263C24.6573 16.2097 24.2883 16.3583 24.0842 16.4422C23.3016 16.764 22.6188 17.294 21.8882 17.7116C21.0237 18.2057 19.888 18.7385 18.9312 19.0105C18.7002 19.0761 18.4978 19.0834 18.2815 19.1309C18.2298 19.1422 18.1921 19.2026 18.1338 19.2079C18.0886 19.2121 18.0483 19.1833 18.0164 19.1864C18.0018 19.1878 18.0027 19.2202 17.9901 19.2283C17.9666 19.2431 17.5055 19.325 17.4464 19.3293C17.3872 19.3335 17.2984 19.3524 17.2844 19.2891C17.0532 19.3933 16.6384 19.339 16.3749 19.307C16.1573 19.2804 15.5278 19.1059 15.3807 19.128C15.3499 19.1327 15.2234 19.1756 15.181 19.1888C15.1626 19.1945 15.1663 19.2279 15.1553 19.2293C15.1093 19.2356 15.0783 19.1769 15.0374 19.1886L14.9437 19.3414C14.8343 19.3157 14.8773 19.3538 14.8118 19.4105C14.7399 19.4731 14.6312 19.5317 14.5384 19.4916V19.5524ZM8.80157 16.4742L8.73206 16.4323C8.66721 16.5129 8.64836 16.595 8.53994 16.5127L8.51684 16.6114C8.39849 16.6067 8.32796 16.6284 8.37741 16.7557L8.29716 16.7356C8.27973 16.8335 8.23109 16.8789 8.14354 16.9168L8.15469 17.0396L8.62952 16.6128C8.71585 16.5867 8.79347 16.5871 8.80117 16.4742H8.80157ZM22.0773 16.5938L18.7687 16.9632C18.2108 17.326 17.6898 17.7915 17.1187 18.1301C16.9788 18.213 16.9126 18.1998 16.8084 18.2454C16.7628 18.2655 16.6526 18.4053 16.577 18.4396C16.4918 18.4779 16.4288 18.4988 16.3486 18.5336C16.3032 18.5533 16.2553 18.6226 16.2055 18.6358C16.1623 18.6471 16.1139 18.6301 16.0786 18.6506C16.1173 18.6919 16.1769 18.6976 16.2296 18.7022C17.6788 18.8261 19.7808 17.9275 21.044 17.2326C21.397 17.0384 21.7506 16.8268 22.0771 16.594L22.0773 16.5938ZM17.4567 17.1004C16.8246 17.1185 16.1972 17.1766 15.562 17.2018C15.1012 17.22 14.6203 17.2086 14.1637 17.2423C14.1037 17.2467 13.848 17.2749 13.8488 17.3529C14.1274 17.7631 14.4782 18.1105 14.905 18.3652C15.0185 18.4329 15.1721 18.5537 15.303 18.503C15.5779 18.3966 15.8839 18.1299 16.1581 18.0004L17.4567 17.1004ZM10.8906 17.6273C10.6782 17.6401 10.4968 17.7688 10.3025 17.8395C10.2358 17.8638 10.1043 17.8499 10.1004 17.9311L10.6527 17.7439L10.8906 17.6275V17.6273ZM11.442 19.5266C11.4817 19.5483 11.5178 19.4924 11.5693 19.4898C11.6112 19.4875 11.6514 19.511 11.6913 19.5119C12.2455 19.5244 12.8888 19.644 13.4287 19.5674C13.6392 19.5376 14.458 19.0504 14.6464 18.9004C14.6657 18.8852 14.708 18.8638 14.7005 18.8334C14.4517 18.6457 14.1599 18.5192 13.9209 18.3158C13.702 18.1293 13.5259 17.8817 13.3134 17.6869L13.2363 17.6711L12.4658 18.1386L12.37 18.1542L12.36 18.0734C12.3116 18.1009 12.3534 18.1421 12.34 18.1739C12.3317 18.1938 12.2768 18.2377 12.2551 18.2523C12.1754 18.306 11.531 18.6009 11.4688 18.6011C11.4365 18.6011 11.4017 18.5756 11.3709 18.5831C11.3494 18.5883 11.2341 18.6862 11.1741 18.7114C11.0493 18.7638 10.9818 18.7389 10.8845 18.7618C10.8658 18.7663 10.8604 18.8182 10.8109 18.8346C10.7467 18.8561 10.6774 18.8313 10.6206 18.8435C10.6129 18.8451 10.572 18.9083 10.4901 18.9201C10.3904 18.9343 10.3616 18.8674 10.3098 18.961L9.62254 19.065C9.59214 19.1059 9.71394 19.3301 9.76987 19.3459C10.2617 19.4014 10.7522 19.4515 11.2454 19.4916C11.3581 19.5007 11.3496 19.4764 11.442 19.5266ZM26.7386 18.377C26.7767 18.3857 26.7867 18.3559 26.8096 18.3366C26.9541 18.215 27.1109 18.0237 27.1843 17.8503L26.7386 18.377ZM10.8713 20.6271C10.8705 20.7017 10.6887 20.7035 10.618 20.7083C10.3618 20.726 10.2295 20.7278 9.97436 20.7943C9.3986 20.9442 8.49981 21.3153 8.42037 21.9964C8.37984 22.3454 8.59 22.3424 8.87696 22.3868C11.6254 22.8113 14.3994 21.2134 17.1022 20.9507C18.8471 20.7811 20.252 21.4564 21.9281 21.6572C23.2789 21.8189 25.8143 21.8973 25.2037 19.78C25.1861 19.7186 25.1411 19.5346 25.0675 19.5327C24.2093 19.8047 23.3131 19.9915 22.4117 20.0586C22.1089 20.0811 21.8027 20.0726 21.4999 20.0994C20.6948 20.1705 19.9044 20.4104 19.0911 20.4035L19.068 20.3628C19.0461 20.4342 18.9365 20.4402 18.8652 20.4437C18.7357 20.4496 18.6013 20.4054 18.4791 20.4226C18.4278 20.4299 18.4033 20.4591 18.3399 20.4656C18.2438 20.4751 18.1514 20.436 18.0742 20.4416C18.0365 20.4445 18.0474 20.4808 18.031 20.4842C17.7994 20.533 17.468 20.5183 17.224 20.5454C17.0198 20.5681 16.7476 20.6668 16.5557 20.6455C16.5301 20.6427 16.5089 20.6149 16.4941 20.6137C16.4706 20.6119 16.4242 20.6544 16.3883 20.6623C16.126 20.7193 15.8267 20.6836 15.5631 20.7286L14.2186 20.7221L14.2044 20.6873C14.1359 20.7939 13.9615 20.6877 13.924 20.6907C13.9002 20.6927 13.8666 20.7248 13.8192 20.729C13.6271 20.746 13.3063 20.7323 13.1105 20.7065C13.0588 20.6996 13.0633 20.6482 12.9883 20.7083C12.97 20.6299 12.8466 20.7096 12.7652 20.7092C12.339 20.7069 11.8877 20.6165 11.469 20.6052C11.2718 20.5997 11.0499 20.7008 10.8713 20.6271ZM6.53342 20.2011C6.42662 20.237 6.29185 20.3756 6.2191 20.4641C6.18282 20.5083 6.13479 20.5679 6.12831 20.6265L6.53342 20.2011ZM8.15469 20.8091C8.11659 20.8004 8.10666 20.8306 8.08376 20.8494C8.00999 20.9106 7.89387 21.0192 7.87117 21.1129C7.95244 21.0391 8.04404 20.9643 8.11416 20.8798C8.133 20.8569 8.1632 20.847 8.15449 20.8089L8.15469 20.8091Z" fill="#3E5637"/>
</svg>
