<svg width="32" height="32" viewBox="0 0 32 32" fill="none" xmlns="http://www.w3.org/2000/svg">
<rect width="32" height="32" rx="8" fill="#3E5637"/>
<path d="M18.9674 14.98C18.5531 15.417 18.1535 15.8721 17.6597 16.2241C16.6123 16.9699 15.6492 16.807 15.0011 18.1939C14.2311 19.8421 14.6066 23.0022 14.5223 24.8731C14.4899 25.5893 14.2165 27.4503 13.6083 27.8746C13.1901 28.1661 12.7002 27.9094 12.4707 27.514C11.8479 26.4415 11.6153 24.4081 11.4744 23.1711C11.0036 19.0303 10.7713 14.859 10.3246 10.7158L10.3262 10.4967L10.5268 10.4797C10.6336 10.4073 10.526 9.83036 10.5224 9.6876C10.5007 8.83025 10.5327 7.96895 10.5652 7.11714C10.5885 6.50379 10.4077 6.04585 10.9589 5.61243C11.271 5.36685 11.4364 5.38148 11.7471 5.61638C12.5281 6.2064 12.1328 7.25555 12.7691 7.68818C12.8027 7.71111 13.0595 7.84873 13.0769 7.84873C13.2835 7.85031 13.3163 7.20058 13.3507 7.05426C13.5517 6.19414 14.3004 5.72909 14.8773 5.13946C15.5151 4.48736 15.7118 4.08874 16.7564 4.01202C19.3429 3.8218 21.0056 5.91891 21.5116 8.23549C22.1475 11.146 20.8552 12.9897 18.9674 14.9804V14.98ZM17.4389 5.84021C16.4568 5.97506 15.7339 7.22747 15.6663 8.14177C15.5618 9.55671 15.8344 11.076 15.4902 12.474C15.4237 12.7437 15.1194 13.3883 15.1115 13.5615C15.1064 13.6726 15.2314 14.1313 15.3382 14.1677C15.6425 14.1903 15.9915 14.1642 16.242 13.9763C16.5775 13.7248 17.3431 12.6812 17.6454 12.2944C18.4756 11.2338 19.792 9.68444 19.6203 8.26633C19.4909 7.19663 18.7205 5.66384 17.4393 5.83981L17.4389 5.84021Z" fill="#E9E4E0"/>
</svg>
