<svg width="370" height="309" viewBox="0 0 370 309" fill="none" xmlns="http://www.w3.org/2000/svg">
<path d="M98.3845 69.2181C96.2914 71.4259 94.2723 73.7256 91.7774 75.5038C86.4857 79.272 81.6199 78.4488 78.3453 85.4558C74.4551 93.7834 76.3522 109.749 75.9264 119.202C75.7625 122.82 74.3811 132.223 71.3084 134.367C69.1954 135.839 66.7205 134.542 65.561 132.544C62.4144 127.126 61.2389 116.852 60.5272 110.602C58.1483 89.6815 56.9748 68.6067 54.7178 47.6738L54.7258 46.5669L55.7393 46.481C56.2791 46.1153 55.7353 43.2003 55.7173 42.479C55.6074 38.1473 55.7693 33.7957 55.9332 29.492C56.0512 26.3932 55.1376 24.0795 57.9224 21.8897C59.4997 20.6489 60.3353 20.7229 61.9046 21.9097C65.8509 24.8907 63.8537 30.1913 67.0683 32.3771C67.2382 32.493 68.5357 33.1883 68.6236 33.1883C69.6672 33.1963 69.8331 29.9136 70.007 29.1744C71.0226 24.8287 74.8049 22.4791 77.7196 19.5001C80.9422 16.2054 81.9358 14.1914 87.2134 13.8038C100.282 12.8428 108.682 23.4381 111.239 35.1424C114.451 49.8476 107.922 59.1622 98.3845 69.2201V69.2181ZM90.6619 23.0405C85.7001 23.7218 82.0477 30.0495 81.7059 34.6688C81.1781 41.8177 82.5555 49.4939 80.8163 56.5568C80.4804 57.9195 78.9431 61.1762 78.9031 62.0513C78.8771 62.6127 79.5088 64.9304 80.0486 65.1142C81.5859 65.2281 83.3491 65.0962 84.6146 64.1472C86.3098 62.8765 90.1781 57.6038 91.7054 55.6497C95.8996 50.2911 102.551 42.463 101.683 35.2982C101.029 29.8936 97.1371 22.1494 90.6639 23.0385L90.6619 23.0405Z" fill="#3E5637"/>
<path d="M137.231 31.0245C139.552 30.495 142.289 33.3841 143.371 35.1923C146.181 39.8956 149.37 51.5359 150.625 57.1123C153.304 69.0023 153.278 84.5647 152.691 96.8223C152.381 103.272 149.756 113.332 145.188 118.095C143.423 119.935 142.527 119.178 141.094 117.587C137.287 113.368 136.931 105.895 137.281 100.403C137.585 95.6355 139.966 91.228 140.486 86.223C141.178 79.5577 141.008 70.9963 140.696 64.2391C140.242 54.417 136.104 44.3571 135.494 34.2752C135.412 32.9126 135.644 31.3861 137.231 31.0245Z" fill="#3E5637"/>
<path d="M195.546 120.219C196.359 121.454 199.196 121.889 200.587 122.065C205.789 122.722 207.057 121.318 211.549 119.885C215.997 118.467 220.103 117.885 224.113 115.26C227.4 113.106 230.118 109.971 233.235 107.596C234.704 107.054 235.508 108.235 235.452 109.594C235.338 112.329 230.938 116.041 228.827 117.573C222.162 122.413 213.973 128.56 205.567 129.092C195.66 129.719 191.252 126.61 186.963 118.099C183.225 110.68 184.311 101.55 184.866 93.4178C185.044 90.8124 184.8 91.2999 185.766 88.9223C187.663 84.241 187.421 79.5457 188.923 74.8944C189.606 72.7765 190.732 70.6147 191.469 68.4489C193.531 62.393 195.438 56.2232 197.361 50.1613C198.738 45.8176 200.26 42.5669 202.734 38.7487C204.836 35.504 210.607 27.0545 213.55 25.1824C219.415 21.4561 228.861 19.5201 235.754 19.7858C238.167 19.8777 243.201 20.2414 245.048 21.6859C246.421 22.7628 248.726 25.3562 245.853 26.0975C241.105 27.3222 238.647 23.9157 234.155 23.582C228.831 23.1864 221.568 26.6969 217.85 30.4771C212.082 36.3412 205.257 52.7607 202.604 60.7946C200.481 67.2241 199.342 73.9953 197.367 80.3349C196.881 81.8954 196.045 83.3519 195.61 84.9723C194.132 90.4548 194.72 95.8753 194.264 101.41C194.056 103.923 192.703 105.727 192.861 108.415C192.957 110.039 193.658 111.218 194.008 112.66C194.512 114.742 194.472 118.586 195.548 120.221L195.546 120.219Z" fill="#3E5637"/>
<path d="M281.172 0.0596433C283.613 -0.44385 286.3 2.35134 287.463 4.26941C290.246 8.8588 293.536 20.8967 294.724 26.3832C297.697 40.1174 296.483 54.4649 296.419 68.4409C295.849 74.4069 293.364 82.215 289.42 86.8204C288.575 87.8094 287.371 88.7944 286.122 87.7275C285.522 87.216 283.363 84.3968 282.993 83.6616C281.432 80.5647 280.986 72.9164 281.22 69.4339C281.488 65.4579 283.433 61.8575 284.137 57.9634C285.328 51.37 285.09 41.6878 284.834 34.8666C284.56 27.524 282.615 22.4991 281.322 15.6C280.668 12.1135 279.561 6.50516 279.429 3.10258C279.377 1.78391 279.694 0.36134 281.172 0.0556473V0.0596433Z" fill="#3E5637"/>
<path d="M265.573 174.795C266.919 174.565 268.197 175.054 269.463 175.122C283.944 175.901 311.588 170.085 323.063 179.618C325.4 181.561 327.756 184.513 328.406 187.527C330.318 187.57 332.249 187.592 334.164 187.576C339.494 187.527 342.984 187.86 348.048 189.902C362.267 195.641 368.169 208.272 360.605 222.333C355.222 232.333 345.096 239.597 336.217 246.313C336.079 246.839 339.447 252.466 339.985 253.67C351.101 278.685 336.304 293.577 311.653 295.912C280.854 298.829 250.745 286.689 220.47 283.473L219.961 282.527C219.933 282.847 219.758 283.286 219.517 283.489C218.802 284.093 214.29 283.672 212.928 283.775C207.76 284.168 202.143 285.491 196.953 286.226C196.147 286.341 195.238 286.123 194.551 286.269C194.301 286.322 194.32 286.954 193.739 287.069C193.157 287.185 192.342 286.858 191.455 286.957C188.808 287.253 185.828 288.993 183.166 289.302C182.222 289.411 181.176 289.065 180.785 289.14C180.36 289.221 179.876 290.136 179.114 290.267C178.554 290.363 178.089 290.049 177.664 290.089C177.127 290.145 175.358 291.189 174.412 291.469C171.037 292.471 166.823 292.608 163.767 293.626C162.817 293.944 162.864 294.657 162.189 294.85C161.136 295.149 159.89 294.912 158.706 295.124C153.75 296.005 145.39 298.216 140.528 299.738C139.038 300.205 135.633 302.189 134.239 301.843C133.967 301.775 134.155 300.996 133.574 301.214C133.005 301.818 132.621 302.266 131.796 302.559C129.003 303.543 123.72 304.399 120.67 304.86C116.94 305.424 113.025 306.152 109.357 304.95V306.196C108.364 305.585 107.954 306.417 107.314 306.495C105.764 306.685 103.668 306.759 102.143 306.672L102.171 305.887C100.434 305.455 100.131 307.479 98.5689 306.214L98.1033 307.13C96.9473 305.825 95.6726 306.98 94.5416 306.822C94.0261 306.75 93.6574 306.202 92.9545 306.161C91.6766 306.084 89.8114 308.036 88.9147 305.922L86.5527 306.51V305.573C84.5063 306.548 82.3662 306.165 80.1854 305.844C72.9151 304.773 61.2271 300.302 56.3969 294.679C43.3372 279.485 61.7363 262.958 76.2394 259.178C76.3144 258.637 75.5302 258.886 75.1521 258.87C63.2485 258.412 48.8267 264.963 42.5624 275.278C38.0728 282.67 39.5506 290.276 30.5276 295.354C23.9884 299.035 19.5987 298.748 13.75 304.788C13.1564 305.402 10.8381 308.5 10.4726 308.687C9.68213 309.091 10.3132 307.591 9.69775 307.756C9.59778 308.702 8.6886 309.048 7.82004 308.995L9.06664 306.196C8.65736 306.906 4.88319 309.144 5.04565 307.332C5.09876 306.747 6.07043 306.277 5.94233 305.573C5.78924 305.399 3.0992 308.568 1.96195 307.373C0.780963 305.645 3.2273 304.474 3.13045 302.771C2.02756 303.496 1.67139 305.165 0.00925797 304.95C-0.243811 299.614 4.74259 293.819 8.6886 290.644C11.9223 288.044 16.0214 286.496 19.1675 284.037C22.9386 281.088 23.1198 277.47 24.7632 273.423C32.599 254.103 55.1753 244.109 75.3021 246.727C74.8084 242.219 68.8598 241.976 65.4043 240.559C51.4948 234.849 51.0168 220.854 60.3148 210.467C61.3489 209.312 63.2547 208.524 63.3766 208.378C63.5172 208.213 63.4078 207.578 63.5953 207.207C63.9046 206.585 65.0044 206.223 64.9981 205.324L66.2385 205.943L66.2447 205.006C67.4882 205.834 69.4503 204.938 68.7379 203.455H69.6846C69.569 202.889 69.1941 202.624 69.8314 202.219C71.0843 203.079 70.9187 201.868 71.8841 201.136C72.7027 200.516 74.8616 199.489 75.9207 198.932C87.5213 192.826 101.075 189.494 114.044 187.882L111.238 185.855C107.451 183.719 107.314 184.145 103.265 184.148C100.812 184.148 101.999 183.619 99.1125 184.376C97.2879 184.855 94.3073 184.693 92.6951 185.086C92.4921 185.135 92.3265 186.34 90.9268 185.391L90.9018 186.291C87.2901 186.312 84.3876 189.691 81.0571 190.351C80.4728 190.466 79.7949 190.257 79.2606 190.379C79.1231 190.41 78.8107 191.456 77.7984 191.001L78.0702 191.574C77.311 191.665 76.8955 192.639 76.3362 192.804C75.4833 193.059 74.0899 192.602 73.4181 193.01C72.5933 193.514 73.8618 194.09 73.5993 194.423C72.9339 195.27 71.5873 195.435 70.9468 195.84C70.5625 196.083 70.3001 196.895 69.6565 197.356C68.5411 198.156 64.5482 200.93 63.5016 201.192C62.4549 201.453 62.0394 201.254 61.2458 200.65L61.2396 203.141L60.4616 201.276C59.6087 201.755 60.221 203.421 59.9492 203.726C59.8742 203.81 59.2337 203.817 58.8963 204.063C57.5622 205.034 57.0124 206.096 55.219 206.952C54.7816 207.161 53.9787 207.101 53.8068 207.254C53.6693 207.375 53.6412 208.163 52.9695 208.755C48.0675 213.064 33.1614 219.154 26.869 216.694C26.3035 216.473 25.688 215.701 25.4693 215.689C25.3068 215.679 25.1631 216.137 24.4633 216.019C17.3273 214.801 11.791 208.365 12.1941 201.12C12.9408 187.682 26.6503 173.002 37.0855 165.526C103.162 118.204 185.647 155.342 258.228 160.177C259.718 160.277 261.464 160.648 262.926 160.993C263.776 160.89 272.174 151.123 273.49 149.694C291.442 130.21 310.641 107.272 332.667 92.3087C342.44 85.6675 356.84 78.6901 366.166 89.9735C376.567 102.555 363.358 124.892 355.494 135.988C337.213 161.784 306.917 173.366 275.711 172.333C273.883 172.273 270.494 171.483 268.875 171.707C267.944 171.834 265.139 174.409 265.573 174.808V174.795ZM336.31 139.432C345.021 131.349 355.362 116.379 359.224 105.13C360.19 102.319 362.701 92.6667 358.687 91.4805C356.697 90.892 350.81 94.0087 348.895 95.1482C344.69 97.6515 340.947 101.696 335.926 102.306C335.87 103.854 334.711 104.819 333.686 105.834C327.859 111.594 320.489 115.937 314.615 122.012C303.543 133.463 292.414 145.852 281.657 157.665C281.023 158.362 280.017 159.455 279.473 160.159C279.232 160.47 278.867 160.554 279.007 161.093C300.228 160.641 320.701 153.91 336.31 139.429V139.432ZM294.001 131.832C295.438 131.103 296.304 129.431 297.447 128.245C304.252 121.168 311.406 113.643 318.849 107.241C322.276 104.293 326.219 101.811 329.306 98.5171L324.788 101.64C314.615 110.573 301.902 120.944 294.001 131.829C292.098 132.791 287.83 138.395 285.89 140.397C280.204 146.269 272.553 152.923 267.76 159.39C267.451 159.807 267.057 160.218 267.132 160.785C267.638 160.333 268.369 160 268.847 159.539C270.653 157.792 272.702 155.498 274.477 153.63C280.576 147.2 288.958 138.775 293.998 131.829L294.001 131.832ZM333.37 146.151C334.067 146.051 334.845 145.341 335.395 144.902C337.095 143.536 339.107 141.705 340.55 140.076C341.166 139.379 342.131 138.305 342.431 137.436L333.374 146.151H333.37ZM346.493 145.528C348.692 143.669 350.748 141.471 352.363 139.083C352.654 138.654 353.129 138.308 353.05 137.748C351.379 139.326 349.848 141.132 348.373 142.891C347.742 143.645 346.796 144.625 346.496 145.531L346.493 145.528ZM116.606 152.291L116.387 151.755C111.81 153.844 105.57 153.131 100.468 153.95C99.9404 154.034 99.5905 154.511 98.8969 154.582C97.5941 154.716 97.1817 154.193 96.3912 153.315C95.807 154.094 95.1165 155.124 94.1198 155.407C93.5918 155.557 92.6108 155.186 92.3171 155.286C91.9234 155.417 91.9859 156.03 91.6454 156.12C90.5612 156.407 88.646 156.223 86.937 156.653C66.2197 161.859 35.2296 179.824 27.8938 200.871C27.5532 201.849 25.7536 206.887 27.0596 207.145C54.1036 199.327 75.199 167.133 106.239 175.568C109.301 176.399 113.378 178.133 116.131 179.721C118.914 181.328 123.382 185.441 126.222 186.166C129.062 186.891 135.123 186.135 138.263 186.004C143.868 185.768 149.52 185.553 155.131 185.067C186.94 182.315 217.886 171.769 250.098 173.846C251.273 173.637 252.569 171.925 253.076 170.9C251.979 169.761 249.642 171.361 249.329 169.191L248.402 169.811L248.223 169.172C247.62 169.378 247.005 169.59 246.352 169.54C246.177 169.527 244.015 168.662 243.215 168.593C213.625 165.975 184.644 157.783 155.097 154.287C145.724 153.178 137.457 153.524 128.269 153.001C127.35 152.948 124.06 152.63 123.513 152.269C123.407 152.201 123.398 151.911 123.42 151.762L122.914 152.39L116.615 152.294L116.606 152.291ZM34.6829 172.308C33.9737 172.407 33.227 173.114 32.6583 173.556C31.0368 174.817 29.5746 176.305 28.1125 177.744L24.3758 182.891C28.1031 179.659 31.2399 175.826 34.6829 172.308ZM30.6244 191.92C33.1614 188.806 35.8326 185.799 38.4321 182.735C38.732 182.383 39.1882 182.227 39.0538 181.645C36.3575 183.99 33.83 186.895 31.8023 189.828C31.3742 190.444 30.7275 191.182 30.6244 191.92ZM291.189 188.809C287.415 189.174 283.797 187.499 280.11 187.237C275.043 186.876 268.038 187.016 262.901 187.237C260.718 187.33 253.519 187.816 251.976 188.803L244.949 195.964C255.6 194.675 266.32 193.878 276.923 192.181C280.86 191.552 286.306 190.824 290.011 189.656C290.477 189.51 291.052 189.348 291.189 188.809ZM234.327 190.366C232.358 190.341 230.609 191.303 228.609 190.92C228.087 190.821 227.737 190.263 227.141 190.363V191.3C225.932 191.163 224.11 191.101 222.923 191.3C222.182 191.425 222.042 192.219 221.051 192.262C220.208 192.3 219.295 191.745 218.389 191.923C218.264 192.066 219.017 192.972 218.174 193.103C215.212 193.723 212.225 193.822 209.263 194.504C201.884 196.201 194.129 199.367 186.756 201.341L183.71 202.817L213.544 200.329C216.971 199.744 220.58 199.719 223.96 198.879C228.556 197.736 231.04 193.445 234.32 190.369L234.327 190.366ZM152.782 197.832L152.632 197.219L138.413 198.614L142.034 202.795L152.782 197.832ZM332.433 198.15C332.289 198.692 332.661 198.773 332.899 199.084C335.492 202.49 338.894 205.479 341.309 209.072C342.656 211.077 344.068 214.801 345.558 216.358C346.649 217.497 347.492 215.193 348.011 214.138C349.886 210.315 353.119 200.333 347.499 198.545C342.715 197.026 337.273 198.673 332.436 198.147L332.433 198.15ZM131.849 205.931L128.887 201.257C127.837 200.373 126.959 198.798 125.441 198.751C121.17 199.29 116.902 199.859 112.678 200.681C111.45 200.921 110.301 201.562 109.123 201.808C106.823 202.291 103.655 202.31 101.515 202.957C101.065 203.094 100.953 203.272 100.868 203.711C99.2812 203.119 99.8936 203.801 99.3437 204.196C98.1033 205.087 96.3787 204.424 95.1727 204.67C94.8759 204.729 95.0477 205.504 94.4947 205.912C93.3231 206.778 89.1397 207.852 87.49 208.587C77.7766 212.914 70.5313 219.113 69.0503 230.222L71.8216 230.182C72.0778 230.005 73.0151 225.213 73.4994 224.226C75.8426 219.459 83.5753 215.963 88.343 214.11C102.168 208.73 117.109 206.974 131.849 205.937V205.931ZM162.467 251.077C168.897 251.139 175.261 250.899 181.682 250.766C197.266 250.442 209.741 250.943 225.022 246.942C249.073 240.647 288.661 223.781 312.675 230.447C314.909 231.066 320.37 234.183 321.848 234.102C322.857 234.046 325.528 232.822 326.606 232.352C332.374 229.84 336.267 228.283 335.517 221.069C334.954 215.645 327.228 201.905 321.751 200.541C318.467 199.722 312.778 202.005 309.632 203.294C297.566 208.238 287.04 216.38 275.777 222.797C262.448 230.388 244.94 238.573 230.19 242.751C226.628 243.76 223.507 243.872 220.173 244.601C219.377 244.775 218.796 245.703 217.896 245.784C217.199 245.849 216.577 245.407 216.087 245.454C215.862 245.476 215.874 245.974 215.681 246.098C215.318 246.326 208.21 247.584 207.298 247.649C206.386 247.714 205.017 248.004 204.802 247.032C201.237 248.633 194.841 247.798 190.78 247.306C187.424 246.899 177.72 244.218 175.452 244.557C174.977 244.629 173.027 245.289 172.375 245.491C172.09 245.578 172.146 246.092 171.978 246.114C171.269 246.21 170.79 245.308 170.159 245.488L168.716 247.836C167.029 247.44 167.691 248.026 166.682 248.897C165.573 249.86 163.898 250.759 162.467 250.143V251.077ZM74.0243 203.786L72.9526 203.141C71.9528 204.38 71.6623 205.641 69.9908 204.377L69.6346 205.893C67.81 205.822 66.7227 206.155 67.4851 208.11L66.2478 207.802C65.9791 209.306 65.2293 210.003 63.8796 210.585L64.0514 212.472L71.3717 205.915C72.7027 205.514 73.8993 205.52 74.018 203.786H74.0243ZM278.692 205.622L227.684 211.298C219.083 216.872 211.05 224.023 202.246 229.226C200.09 230.5 199.069 230.297 197.463 230.998C196.76 231.306 195.06 233.454 193.895 233.981C192.583 234.569 191.611 234.89 190.374 235.425C189.674 235.727 188.937 236.792 188.168 236.994C187.502 237.169 186.756 236.907 186.212 237.222C186.809 237.857 187.727 237.944 188.54 238.016C210.882 239.918 243.287 226.113 262.761 215.436C268.203 212.454 273.655 209.203 278.689 205.626L278.692 205.622ZM207.457 213.406C197.713 213.683 188.04 214.577 178.248 214.963C171.144 215.243 163.73 215.069 156.69 215.586C155.766 215.654 151.823 216.087 151.835 217.286C156.131 223.588 161.539 228.924 168.119 232.838C169.869 233.878 172.237 235.733 174.255 234.955C178.492 233.32 183.21 229.223 187.437 227.233L207.457 213.406ZM106.23 221.501C102.955 221.698 100.159 223.675 97.1629 224.761C96.135 225.135 94.1073 224.92 94.048 226.169L102.562 223.292L106.23 221.505V221.501ZM114.731 250.681C115.343 251.015 115.899 250.155 116.693 250.115C117.34 250.081 117.958 250.442 118.574 250.454C127.119 250.647 137.035 252.484 145.359 251.307C148.605 250.85 161.227 243.365 164.133 241.061C164.429 240.827 165.082 240.497 164.967 240.03C161.13 237.147 156.631 235.204 152.948 232.078C149.573 229.214 146.858 225.409 143.581 222.417L142.394 222.174L130.515 229.357L129.037 229.597L128.884 228.354C128.137 228.778 128.781 229.41 128.575 229.899C128.447 230.204 127.6 230.879 127.266 231.104C126.038 231.929 116.103 236.459 115.143 236.462C114.647 236.462 114.109 236.07 113.634 236.185C113.303 236.266 111.525 237.77 110.601 238.156C108.676 238.962 107.636 238.579 106.136 238.931C105.849 239 105.764 239.797 105.002 240.049C104.011 240.379 102.943 239.999 102.068 240.186C101.949 240.211 101.318 241.182 100.056 241.363C98.5189 241.581 98.0752 240.553 97.2754 241.992L86.6808 243.589C86.2122 244.218 88.0899 247.661 88.9522 247.904C96.5349 248.757 104.096 249.526 111.7 250.143C113.437 250.283 113.306 249.909 114.731 250.681ZM350.554 233.018C351.142 233.152 351.295 232.695 351.648 232.399C353.875 230.531 356.293 227.592 357.424 224.926L350.554 233.018ZM105.933 267.588C105.92 268.734 103.118 268.762 102.027 268.836C98.0783 269.107 96.0382 269.135 92.1046 270.157C83.2285 272.461 69.3721 278.161 68.1474 288.626C67.5226 293.988 70.7625 293.941 75.1865 294.623C117.558 301.146 160.324 276.595 201.993 272.56C228.893 269.954 250.551 280.329 276.392 283.414C297.216 285.899 336.304 287.104 326.891 254.573C326.619 253.63 325.925 250.803 324.791 250.775C311.56 254.953 297.744 257.824 283.847 258.854C279.179 259.2 274.458 259.069 269.791 259.48C257.378 260.573 245.193 264.26 232.655 264.154L232.299 263.528C231.961 264.624 230.271 264.717 229.171 264.77C227.175 264.861 225.104 264.182 223.22 264.446C222.429 264.559 222.051 265.007 221.073 265.106C219.592 265.253 218.168 264.652 216.977 264.739C216.396 264.783 216.565 265.34 216.312 265.393C212.741 266.143 207.632 265.916 203.871 266.333C200.721 266.682 196.525 268.198 193.567 267.871C193.173 267.828 192.845 267.401 192.617 267.382C192.255 267.354 191.539 268.008 190.986 268.13C186.943 269.005 182.329 268.457 178.264 269.148L157.537 269.048L157.318 268.513C156.262 270.15 153.572 268.519 152.994 268.566C152.629 268.597 152.11 269.089 151.379 269.154C148.417 269.416 143.471 269.204 140.453 268.808C139.657 268.703 139.725 267.912 138.569 268.836C138.288 267.632 136.386 268.855 135.13 268.849C128.559 268.815 121.601 267.426 115.146 267.252C112.107 267.168 108.685 268.721 105.933 267.588ZM39.0569 261.043C37.4104 261.594 35.3327 263.724 34.2111 265.085C33.6519 265.763 32.9114 266.679 32.8114 267.579L39.0569 261.043ZM64.0514 270.384C63.4641 270.25 63.311 270.714 62.9579 271.004C61.8207 271.944 60.0304 273.613 59.6805 275.051C60.9334 273.918 62.3456 272.769 63.4266 271.471C63.7171 271.119 64.1827 270.966 64.0483 270.381L64.0514 270.384Z" fill="#3E5637"/>
</svg>
